<?xml version="1.0" encoding="UTF-8"?>
<svg xmlns="http://www.w3.org/2000/svg" width="1017" height="710" viewBox="0 0 1017 710" fill="none">
  <g clip-path="url(#clip0_1_12720)">
    <rect width="1017" height="710" fill="white"></rect>
    <path d="M136.422 320.937C141.631 320.503 155.303 323.411 168.324 338.516C184.601 357.397 202.179 373.022 241.894 351.537C281.609 330.052 316.115 315.729 334.345 320.937" stroke="#EBEBEB" stroke-width="1.30212"></path>
    <path d="M32.2531 626.667L14.0234 633.178L17.9298 610.391L32.2531 626.667Z" stroke="#169F32" stroke-width="1.30212"></path>
    <path d="M871.47 276.894H907.278" stroke="black" stroke-width="1.30212"></path>
    <path d="M870.818 284.056H906.626" stroke="black" stroke-width="1.30212"></path>
    <path d="M870.818 291.869H906.626" stroke="black" stroke-width="1.30212"></path>
    <path d="M870.818 298.379H894.256" stroke="black" stroke-width="1.30212"></path>
    <circle cx="580.445" cy="637.581" r="9.76589" stroke="#FF842B" stroke-width="1.30212"></circle>
    <path d="M253.613 205.929C263.813 200.069 299.708 193.428 361.689 213.741C423.67 234.054 444.374 209.184 446.978 194.209" stroke="#F5F5F5" stroke-width="1.30212"></path>
    <circle cx="157.257" cy="257.362" r="5.85954" stroke="#FF842B" stroke-width="1.30212"></circle>
    <path d="M46.5767 521.093L120.797 504.816L170.278 521.093L103.219 541.927L46.5767 521.093Z" fill="#EBEBEB"></path>
    <path d="M882.018 490.493L858.58 508.722L921.081 527.603L952.983 493.748L882.018 490.493Z" fill="#EBEBEB"></path>
    <path d="M848.164 515.884L850.768 499.607L921.082 527.603L848.164 515.884Z" fill="#D7D7D7"></path>
    <path d="M179.393 553.514H541.382" stroke="#1F1F1F" stroke-width="1.30212"></path>
    <circle cx="607.675" cy="86.0058" r="9.76589" stroke="#FFB800" stroke-width="1.30212"></circle>
    <rect x="590.842" y="71.1434" width="22.7786" height="22.7786" transform="rotate(44.5693 590.842 71.1434)" stroke="#169F32" stroke-width="1.30212"></rect>
    <path d="M892.719 47.1499L879.932 62.6021L898.048 65.2663L892.719 54.0768" stroke="#169F32" stroke-width="1.30212"></path>
    <circle cx="981.145" cy="164.988" r="7.45974" fill="#FFE2C8"></circle>
    <path d="M341.054 177.053L328.867 178.272L336.423 187.535L341.054 177.053Z" stroke="#169F32" stroke-width="1.30212"></path>
    <path d="M434.335 596.056L426.794 586.458L436.734 580.288L443.247 589.201L434.335 596.056Z" fill="#FFB800"></path>
    <path d="M778.368 596.708L779.934 584.194L789.318 592.015L778.368 596.708Z" stroke="#007618" stroke-width="1.30212"></path>
    <path d="M138.313 91.6831L123.097 76.4668L138.313 61.2505" stroke="#570DB4" stroke-width="1.30212"></path>
    <path d="M122.381 91.6831L107.165 76.4668L122.381 61.2505" stroke="#570DB4" stroke-width="1.30212"></path>
    <path d="M106.445 91.6831L91.229 76.4668L106.445 61.2505" stroke="#570DB4" stroke-width="1.30212"></path>
    <path d="M90.5063 91.6831L75.29 76.4668L90.5063 61.2505" stroke="#570DB4" stroke-width="1.30212"></path>
    <path d="M-31 98.4536L-26.4979 104.208L-21.7606 98.6204L-17.2584 104.208L-12.9915 99.0374L-8.42217 104.375L-4.35683 99.1208L-0.459453 104.291L3.94187 98.954" stroke="#A7A7A7" stroke-width="1.30212" stroke-miterlimit="10" stroke-linecap="round" stroke-linejoin="round"></path>
    <path d="M385.738 380.653L390.24 386.408L394.977 380.82L399.479 386.408L403.746 381.237L408.316 386.575L412.381 381.321L416.278 386.491L420.68 381.154" stroke="#A7A7A7" stroke-width="1.30212" stroke-miterlimit="10" stroke-linecap="round" stroke-linejoin="round"></path>
    <path d="M43.1313 340.617C51.2325 340.718 57.7866 348.903 57.7866 359.008C57.7866 369.113 51.2325 377.298 43.1313 377.399L43.1313 340.617Z" fill="#007618"></path>
    <path d="M25.2593 340.617C33.3604 340.718 39.9146 348.903 39.9146 359.008C39.9146 369.113 33.3604 377.298 25.2593 377.399L25.2593 340.617Z" stroke="#007618" stroke-width="1.30212" stroke-miterlimit="10"></path>
    <path d="M47.8937 344.052C47.8937 348.346 50.7026 351.833 54.1629 351.833C57.6232 351.833 60.4321 348.346 60.4321 344.052C60.4321 339.757 57.6232 336.271 54.1629 336.271C50.7026 336.271 47.8937 339.757 47.8937 344.052Z" stroke="#A7A7A7" stroke-width="1.30212" stroke-miterlimit="10" stroke-linecap="round" stroke-linejoin="round"></path>
    <path d="M288.061 538.643C276.946 527.279 277.148 509.056 288.512 497.941L393.664 395.097L425.329 421.874L330.872 536.794C319.995 550.027 300.038 550.889 288.061 538.643V538.643Z" fill="#570DB4"></path>
    <rect x="549.777" y="436.394" width="38.5157" height="106.862" rx="19.2579" transform="rotate(4.55831 549.777 436.394)" fill="#E1B48B"></rect>
    <rect x="539.258" y="539.447" width="38.5157" height="130.673" rx="19.2579" transform="rotate(-77.2962 539.258 539.447)" fill="#C28A57"></rect>
    <path d="M543.171 413.841C544.427 398.09 558.215 386.338 573.966 387.594V387.594C589.718 388.85 601.47 402.637 600.214 418.389L594.485 490.241L537.443 485.693L543.171 413.841Z" fill="#A70B11"></path>
    <path d="M443.589 486.222L490.546 469.7C538.662 469.7 593.678 485.874 581.851 515.788C570.025 545.701 498.952 557.527 447.937 553.179L443.589 486.222Z" fill="#CD2026"></path>
    <rect x="615.767" y="539.267" width="133.915" height="12.1741" fill="#C5C5C5"></rect>
    <circle cx="596.165" cy="353.01" r="32.4632" transform="rotate(38.3019 596.165 353.01)" fill="#E1B48B"></circle>
    <path d="M505.861 413.88C512.62 388.658 538.545 373.691 563.766 380.45V380.45C591.988 388.012 608.616 417.148 600.773 445.293L579.143 522.914L480.735 507.642L505.861 413.88Z" fill="#CD2026"></path>
    <rect x="515.702" y="439.928" width="38.5157" height="106.862" rx="19.2579" transform="rotate(4.55831 515.702 439.928)" fill="#E1B48B"></rect>
    <rect x="505.184" y="542.982" width="38.5157" height="130.673" rx="19.2579" transform="rotate(-77.2962 505.184 542.982)" fill="#E1B48B"></rect>
    <path d="M509.096 417.377C510.352 401.625 524.139 389.874 539.891 391.129V391.129C555.643 392.385 567.394 406.173 566.139 421.924L560.41 493.776L503.368 489.228L509.096 417.377Z" fill="#A70B11"></path>
    <path fill-rule="evenodd" clip-rule="evenodd" d="M337.673 494.048H436.636V554.918H308.808C292.481 554.918 279.157 542.063 278.406 525.922C277.227 521.435 277.128 516.597 278.332 511.778L314.067 368.829L351.417 379.264L337.673 494.048Z" fill="#7128CE"></path>
    <path d="M285.141 346.896C287.088 340.165 294.122 336.287 300.852 338.233L345.236 351.068C350.31 352.536 353.235 357.84 351.767 362.914L347.376 378.099L293.804 362.607C287.073 360.66 283.195 353.626 285.141 346.896V346.896Z" fill="#1F1F1F"></path>
    <path d="M376.483 363.898C381.058 358.591 389.068 357.998 394.375 362.573L429.368 392.74C433.37 396.189 433.817 402.229 430.368 406.23L420.047 418.203L377.808 381.79C372.501 377.215 371.908 369.205 376.483 363.898V363.898Z" fill="#1F1F1F"></path>
    <path fill-rule="evenodd" clip-rule="evenodd" d="M693.425 527.234L721.469 500.894L725.259 505.316L687.267 540.182L683.225 536.361L693.425 527.234ZM683.223 536.36L680.697 542.361L687.266 540.182L683.223 536.36Z" fill="#1F1F1F"></path>
    <path fill-rule="evenodd" clip-rule="evenodd" d="M783.336 278.206C783.337 278.353 783.338 278.5 783.338 278.647H783.336V299.209H783.339V312.409H739.274V415.683H726.074V312.409H725.806V299.209L726.074 299.209H739.274L770.136 299.209V278.647H770.066C770.066 273.737 769.098 268.875 767.219 264.339C765.34 259.802 762.586 255.68 759.114 252.208C755.642 248.736 751.52 245.982 746.984 244.103C742.447 242.224 737.585 241.257 732.675 241.257C727.765 241.257 722.903 242.224 718.366 244.103C713.83 245.982 709.708 248.736 706.236 252.208C702.764 255.68 700.01 259.802 698.131 264.339C696.252 268.875 695.285 273.737 695.285 278.647H682.012C682.012 271.994 683.323 265.406 685.869 259.259C688.415 253.113 692.147 247.528 696.851 242.823C701.556 238.119 707.141 234.387 713.287 231.841C719.434 229.295 726.022 227.984 732.675 227.984C739.328 227.984 745.916 229.295 752.063 231.841C758.21 234.387 763.795 238.119 768.499 242.823C773.204 247.528 776.936 253.113 779.482 259.259C781.961 265.245 783.269 271.65 783.335 278.126H783.336V278.206Z" fill="#CD2026"></path>
    <rect x="726.075" y="423.172" width="12.8763" height="12.8763" fill="#CD2026"></rect>
    <path d="M606.513 312.021C612.576 332.912 595.567 343.157 586.304 345.668C570.404 358.925 554.081 351.192 547.906 345.668C547.502 343.659 555.485 340.478 559.526 339.139C556.293 337.934 553.801 329.932 552.959 326.082C554.171 324.475 563.568 325.413 568.115 326.082C565.69 322.868 567.105 315.369 568.115 312.021C570.54 312.021 576.536 316.039 579.23 318.047C583.272 308.406 586.64 306.999 587.819 307.502C590.648 307.903 593.04 315.369 593.882 319.052C595.094 315.838 602.808 313.026 606.513 312.021Z" fill="#1F1F1F"></path>
  </g>
  <defs>
    <clipPath id="clip0_1_12720">
      <rect width="1017" height="710" fill="white"></rect>
    </clipPath>
  </defs>
</svg>
